<svg fill="none" height="56" viewBox="0 0 133 56" width="133" xmlns="http://www.w3.org/2000/svg" xmlns:xlink="http://www.w3.org/1999/xlink"><linearGradient id="a" gradientUnits="userSpaceOnUse" x1="0" x2="69.4137" y1="0" y2="33.6987"><stop offset="0" stop-color="#007e9f"/><stop offset=".386134" stop-color="#007e9f"/><stop offset=".930954" stop-color="#004a69"/></linearGradient><path clip-rule="evenodd" d="m55.1155 7.01964c-3.3741-.61171-19.718-3.49725-22.8668-3.97833-3.1487-.48108-17.1912-2.080181-21.0258-2.442627-3.83449-.362446-7.84107-.59652024-7.84107-.59652024s-1.86288-.11961476-2.851538 1.42025724c-.988658 1.53994-.291801 3.04871-.291801 3.04871l3.126079 9.10097 3.77937 9.8401 2.62389-1.1561s.72757 2.1149 4.00207 1.0239c3.2743-1.091 6.1055-2.5591 7.6636-4.2251s2.4483-2.7708 3.6241-4.6705c1.1756-1.8997 1.4491-1.7893 2.7425-1.5435 1.2935.2458 6.9301.5846 12.9761.0201 6.046-.5644 9.1258-1.18 9.1258-1.18l-18.2281 7.7528-.1442.0604s-.2613-1.016-1.1244-1.0482-1.4551.441-1.6016.8963c-.1465.4554.0082.9534.0082.9534l.588 1.3855.3041.7167s.4311 1.2826 1.7216.8542.9961-1.6557.9961-1.6557l-.1141-.4023 17.9803-7.5363.2885-.1209-3.1725 2.3989s-4.1361 3.1968-7.3889 6.4737c-3.2529 3.2768-5.2406 5.7983-5.2406 5.7983s-1.2314 2.0355-2.796 1.2844c-1.5645-.7511-5.7536-1.4153-10.5641-.0743-1.5411.4296-2.6829 1.0282-3.6056 1.5113-1.4946.7824-3.4259 1.7227-2.9742 3.6665l-2.7884 1.1687 2.6711 6.0276 4.2574 8.9645 1.0693 2.253s.9454 2.3613 2.9675 2.1891c2.0222-.1723 2.8035-1.4001 2.8035-1.4001l8.2629-9.485 7.0031-8.4504 7.7311-9.9374 7.1971-9.9949 2.1772-3.2762s1.3176-1.5652.5396-3.26515c-.5143-1.0787-.8925-1.87697-3.6104-2.36981z" fill="url(#a)" fill-rule="evenodd"/><path d="m86.5374 34.2094-.0251-11.9888-6.3438 9.9907h-1.1534l-6.3438-9.9202v11.9183h-2.4071v-16.4553h2.056l7.3217 11.5657 7.2214-11.5657h2.0561l.0251 16.4553zm7.6727-16.4553h7.3969c1.855 0 3.502.3448 4.94 1.0344 1.437.6895 2.553 1.6572 3.347 2.9031s1.191 2.676 1.191 4.2902-.397 3.0442-1.191 4.2901-1.91 2.2136-3.347 2.9032c-1.438.6896-3.085 1.0343-4.94 1.0343h-7.3969zm7.2469 14.4101c1.42 0 2.67-.2585 3.748-.7757 1.078-.5171 1.91-1.242 2.495-2.1744.585-.9325.878-2.0099.878-3.2323s-.293-2.2999-.878-3.2323c-.585-.9325-1.417-1.6573-2.495-2.1745s-2.328-.7757-3.748-.7757h-4.7395v12.3649zm31.543 3.5497c-.568.6269-1.229 1.1048-1.981 1.434-.752.3291-1.563.4936-2.432.4936-1.103 0-2.136-.2468-3.097-.7405-.961-.4936-2.06-1.336-3.297-2.527-1.655-.0784-3.147-.4937-4.476-1.2459-1.329-.7523-2.365-1.7513-3.109-2.9972s-1.116-2.6289-1.116-4.1491c0-1.5829.406-3.0168 1.216-4.3019.811-1.2851 1.927-2.292 3.348-3.0207 1.421-.7288 3.017-1.0932 4.789-1.0932 1.755 0 3.343.3644 4.764 1.0932 1.421.7287 2.533 1.7317 3.335 3.0089.802 1.2773 1.203 2.7151 1.203 4.3137 0 1.3477-.288 2.5858-.865 3.7142-.576 1.1283-1.387 2.0765-2.432 2.8444s-2.244 1.3008-3.598 1.5985c.585.5798 1.149.9991 1.693 1.2577.543.2585 1.099.3878 1.667.3878 1.237 0 2.307-.4701 3.21-1.4104zm-17-9.7321c0 1.191.296 2.2684.89 3.2323.593.9638 1.412 1.7199 2.457 2.2684 1.045.5486 2.211.8228 3.498.8228 1.27 0 2.424-.2742 3.46-.8228 1.037-.5485 1.851-1.3046 2.445-2.2684.593-.9639.89-2.0413.89-3.2323 0-1.1911-.297-2.2685-.89-3.2323-.594-.9639-1.408-1.72-2.445-2.2685-1.036-.5485-2.19-.8228-3.46-.8228-1.287 0-2.453.2743-3.498.8228s-1.864 1.3046-2.457 2.2685c-.594.9638-.89 2.0412-.89 3.2323z" fill="#007e9f"/></svg>